HIERARCHY
ROOT Hips
{
	OFFSET 0.000000 83.214638 0.000000
	CHANNELS 6 Xposition Yposition Zposition Xrotation Yrotation Zrotation
	JOINT Pelvis
	{
		OFFSET 0.000000 0.000000 0.000000
		CHANNELS 3 Xrotation Yrotation Zrotation
		JOINT LeftUpLeg
		{
			OFFSET 8.479700 -4.795502 -0.379100
			CHANNELS 3 Xrotation Yrotation Zrotation
			JOINT LeftLeg
			{
				OFFSET 0.024144 -32.555107 0.112900
				CHANNELS 3 Xrotation Yrotation Zrotation
				JOINT LeftFoot
				{
					OFFSET -0.024144 -32.638630 -3.012600
					CHANNELS 3 Xrotation Yrotation Zrotation
					JOINT LeftToeBase
					{
						OFFSET 0.970200 -13.225400 11.864200
						CHANNELS 3 Xrotation Yrotation Zrotation
						End Site
						{
							OFFSET 0.000000 12.319262 0.000000
						}
					}
					JOINT LFootTongue
					{
						OFFSET 1.142400 -1.059800 6.665200
						CHANNELS 3 Xrotation Yrotation Zrotation
						End Site
						{
							OFFSET 0.000000 12.319262 0.000000
						}
					}
				}
				JOINT LeftPantLeg
				{
					OFFSET 0.918482 -16.533964 -2.284700
					CHANNELS 3 Xrotation Yrotation Zrotation
					End Site
					{
						OFFSET 0.350399 24.744368 0.000000
					}
				}
			}
		}
		JOINT RightUpLeg
		{
			OFFSET -8.479700 -4.795502 -0.379100
			CHANNELS 3 Xrotation Yrotation Zrotation
			JOINT RightLeg
			{
				OFFSET -0.023144 -32.555092 0.112900
				CHANNELS 3 Xrotation Yrotation Zrotation
				JOINT RightFoot
				{
					OFFSET 0.023144 -32.638641 -3.012700
					CHANNELS 3 Xrotation Yrotation Zrotation
					JOINT RightToeBase
					{
						OFFSET -0.970200 -13.225400 11.864200
						CHANNELS 3 Xrotation Yrotation Zrotation
						End Site
						{
							OFFSET 0.000000 12.319244 0.000000
						}
					}
					JOINT RFootTongue
					{
						OFFSET -1.142200 -1.059800 6.665200
						CHANNELS 3 Xrotation Yrotation Zrotation
						End Site
						{
							OFFSET 0.000000 12.319243 0.000000
						}
					}
				}
				JOINT RightPantLeg
				{
					OFFSET -0.919482 -16.533978 -2.284800
					CHANNELS 3 Xrotation Yrotation Zrotation
					End Site
					{
						OFFSET -0.350400 24.744419 0.000000
					}
				}
			}
		}
	}
	JOINT Spine
	{
		OFFSET 0.000000 7.722000 1.166200
		CHANNELS 3 Xrotation Yrotation Zrotation
		JOINT Spine1
		{
			OFFSET 0.000000 12.024101 0.248800
			CHANNELS 3 Xrotation Yrotation Zrotation
			JOINT Spine2
			{
				OFFSET 0.000000 11.502998 -0.491200
				CHANNELS 3 Xrotation Yrotation Zrotation
				JOINT Neck
				{
					OFFSET 0.000000 18.430702 -3.123100
					CHANNELS 3 Xrotation Yrotation Zrotation
					JOINT Head
					{
						OFFSET 0.000000 9.051102 1.034000
						CHANNELS 3 Xrotation Yrotation Zrotation
						JOINT HairB
						{
							OFFSET 0.208400 24.786102 24.822300
							CHANNELS 3 Xrotation Yrotation Zrotation
							End Site
							{
								OFFSET 0.000000 32.263779 0.000000
							}
						}
						JOINT HairA
						{
							OFFSET -7.081100 24.428299 23.196600
							CHANNELS 3 Xrotation Yrotation Zrotation
							End Site
							{
								OFFSET 0.000000 32.263779 0.000000
							}
						}
						JOINT Hat
						{
							OFFSET 16.728800 15.048294 -15.439601
							CHANNELS 3 Xrotation Yrotation Zrotation
							End Site
							{
								OFFSET 0.000000 32.263779 0.000000
							}
						}
					}
				}
				JOINT LeftShoulder
				{
					OFFSET 6.197800 13.665199 -4.064700
					CHANNELS 3 Xrotation Yrotation Zrotation
					JOINT LeftArm
					{
						OFFSET 7.778100 -0.187103 -1.709300
						CHANNELS 3 Xrotation Yrotation Zrotation
						JOINT LeftForeArm
						{
							OFFSET 22.049376 0.000000 0.000000
							CHANNELS 3 Xrotation Yrotation Zrotation
							JOINT LeftHand
							{
								OFFSET 23.009392 0.000000 0.000000
								CHANNELS 3 Xrotation Yrotation Zrotation
								JOINT LeftHandThumb1
								{
									OFFSET 3.507191 -2.063065 3.133727
									CHANNELS 3 Xrotation Yrotation Zrotation
									JOINT LeftHandThumb2
									{
										OFFSET 3.101337 -1.790558 1.790558
										CHANNELS 3 Xrotation Yrotation Zrotation
										JOINT LeftHandThumb3
										{
											OFFSET 3.058640 -1.765907 1.765906
											CHANNELS 3 Xrotation Yrotation Zrotation
											End Site
											{
												OFFSET -0.415260 3.926476 -0.049563
											}
										}
									}
								}
								JOINT LeftHandIndex1
								{
									OFFSET 11.334419 -0.901459 3.706815
									CHANNELS 3 Xrotation Yrotation Zrotation
									JOINT LeftHandIndex2
									{
										OFFSET 3.283112 0.000000 0.000000
										CHANNELS 3 Xrotation Yrotation Zrotation
										JOINT LeftHandIndex3
										{
											OFFSET 3.323853 0.000000 0.000000
											CHANNELS 3 Xrotation Yrotation Zrotation
											End Site
											{
												OFFSET -1.135597 3.097809 0.402452
											}
										}
									}
								}
								JOINT LeftHandMiddle1
								{
									OFFSET 11.335861 0.000000 0.000000
									CHANNELS 3 Xrotation Yrotation Zrotation
									JOINT LeftHandMiddle2
									{
										OFFSET 3.410492 0.000000 0.000000
										CHANNELS 3 Xrotation Yrotation Zrotation
										JOINT LeftHandMiddle3
										{
											OFFSET 3.312172 0.000000 0.000000
											CHANNELS 3 Xrotation Yrotation Zrotation
											End Site
											{
												OFFSET -1.150200 3.080154 0.400270
											}
										}
									}
								}
								JOINT LeftHandRing1
								{
									OFFSET 11.514786 -0.013176 -3.003090
									CHANNELS 3 Xrotation Yrotation Zrotation
									JOINT LeftHandRing2
									{
										OFFSET 3.053307 0.000000 0.000000
										CHANNELS 3 Xrotation Yrotation Zrotation
										JOINT LeftHandRing3
										{
											OFFSET 3.295807 0.000000 0.000000
											CHANNELS 3 Xrotation Yrotation Zrotation
											End Site
											{
												OFFSET -1.281006 3.013344 0.375733
											}
										}
									}
								}
								JOINT LeftHandPinky1
								{
									OFFSET 10.518692 -0.960396 -5.730441
									CHANNELS 3 Xrotation Yrotation Zrotation
									JOINT LeftHandPinky2
									{
										OFFSET 2.861649 0.000000 0.000000
										CHANNELS 3 Xrotation Yrotation Zrotation
										JOINT LeftHandPinky3
										{
											OFFSET 2.863380 0.000000 0.000000
											CHANNELS 3 Xrotation Yrotation Zrotation
											End Site
											{
												OFFSET -0.843597 2.711159 0.369971
											}
										}
									}
								}
							}
							JOINT LSleeve
							{
								OFFSET 6.676277 -0.344902 -1.011730
								CHANNELS 3 Xrotation Yrotation Zrotation
								End Site
								{
									OFFSET 0.000000 14.885353 0.000000
								}
							}
						}
					}
				}
				JOINT RightShoulder
				{
					OFFSET -6.197800 13.665199 -4.064700
					CHANNELS 3 Xrotation Yrotation Zrotation
					JOINT RightArm
					{
						OFFSET -7.778100 -0.187103 -1.709300
						CHANNELS 3 Xrotation Yrotation Zrotation
						JOINT RightForeArm
						{
							OFFSET -22.049376 0.000000 0.000000
							CHANNELS 3 Xrotation Yrotation Zrotation
							JOINT RightHand
							{
								OFFSET -23.009392 0.000000 0.000000
								CHANNELS 3 Xrotation Yrotation Zrotation
								JOINT RightHandThumb1
								{
									OFFSET -3.507191 -2.063065 3.133727
									CHANNELS 3 Xrotation Yrotation Zrotation
									JOINT RightHandThumb2
									{
										OFFSET -3.101337 -1.790558 1.790558
										CHANNELS 3 Xrotation Yrotation Zrotation
										JOINT RightHandThumb3
										{
											OFFSET -3.058640 -1.765907 1.765906
											CHANNELS 3 Xrotation Yrotation Zrotation
											End Site
											{
												OFFSET 0.415260 3.926476 -0.049563
											}
										}
									}
								}
								JOINT RightHandIndex1
								{
									OFFSET -11.334419 -0.901459 3.706815
									CHANNELS 3 Xrotation Yrotation Zrotation
									JOINT RightHandIndex2
									{
										OFFSET -3.283112 0.000000 0.000000
										CHANNELS 3 Xrotation Yrotation Zrotation
										JOINT RightHandIndex3
										{
											OFFSET -3.323853 0.000000 0.000000
											CHANNELS 3 Xrotation Yrotation Zrotation
											End Site
											{
												OFFSET 1.135597 3.097809 0.402452
											}
										}
									}
								}
								JOINT RightHandMiddle1
								{
									OFFSET -11.335861 0.000000 0.000000
									CHANNELS 3 Xrotation Yrotation Zrotation
									JOINT RightHandMiddle2
									{
										OFFSET -3.410492 0.000000 0.000000
										CHANNELS 3 Xrotation Yrotation Zrotation
										JOINT RightHandMiddle3
										{
											OFFSET -3.312172 0.000000 0.000000
											CHANNELS 3 Xrotation Yrotation Zrotation
											End Site
											{
												OFFSET 1.150200 3.080154 0.400270
											}
										}
									}
								}
								JOINT RightHandRing1
								{
									OFFSET -11.514786 -0.013176 -3.003090
									CHANNELS 3 Xrotation Yrotation Zrotation
									JOINT RightHandRing2
									{
										OFFSET -3.053307 0.000000 0.000000
										CHANNELS 3 Xrotation Yrotation Zrotation
										JOINT RightHandRing3
										{
											OFFSET -3.295807 0.000000 0.000000
											CHANNELS 3 Xrotation Yrotation Zrotation
											End Site
											{
												OFFSET 1.281006 3.013344 0.375733
											}
										}
									}
								}
								JOINT RightHandPinky1
								{
									OFFSET -10.518692 -0.960396 -5.730441
									CHANNELS 3 Xrotation Yrotation Zrotation
									JOINT RightHandPinky2
									{
										OFFSET -2.861649 0.000000 0.000000
										CHANNELS 3 Xrotation Yrotation Zrotation
										JOINT RightHandPinky3
										{
											OFFSET -2.863380 0.000000 0.000000
											CHANNELS 3 Xrotation Yrotation Zrotation
											End Site
											{
												OFFSET 0.843597 2.711159 0.369971
											}
										}
									}
								}
							}
							JOINT RSleeve
							{
								OFFSET -6.676277 -0.344902 -1.011730
								CHANNELS 3 Xrotation Yrotation Zrotation
								End Site
								{
									OFFSET 0.000000 14.885353 0.000000
								}
							}
						}
					}
				}
				JOINT Backpack
				{
					OFFSET 0.000000 -2.471497 36.677502
					CHANNELS 3 Xrotation Yrotation Zrotation
					End Site
					{
						OFFSET 0.000000 20.427315 0.000000
					}
				}
				JOINT Hood
				{
					OFFSET 0.000000 18.754097 -10.431000
					CHANNELS 3 Xrotation Yrotation Zrotation
					JOINT Hood1
					{
						OFFSET 0.000000 -5.011002 -7.685901
						CHANNELS 3 Xrotation Yrotation Zrotation
						End Site
						{
							OFFSET 0.000000 9.175140 0.000000
						}
					}
				}
				JOINT LHoodieString
				{
					OFFSET 5.250500 16.397697 3.089900
					CHANNELS 3 Xrotation Yrotation Zrotation
					JOINT LHoodieString1
					{
						OFFSET 0.257700 -6.364304 3.694600
						CHANNELS 3 Xrotation Yrotation Zrotation
						JOINT LHoodieString2
						{
							OFFSET 0.000000 -9.643799 2.679100
							CHANNELS 3 Xrotation Yrotation Zrotation
							End Site
							{
								OFFSET 0.000000 10.009018 0.000000
							}
						}
					}
				}
				JOINT RHoodieString
				{
					OFFSET -5.250500 16.397697 3.089900
					CHANNELS 3 Xrotation Yrotation Zrotation
					JOINT RHoodieString1
					{
						OFFSET -0.257700 -6.364304 3.694600
						CHANNELS 3 Xrotation Yrotation Zrotation
						JOINT RHoodieString2
						{
							OFFSET 0.000000 -9.643799 2.679100
							CHANNELS 3 Xrotation Yrotation Zrotation
							End Site
							{
								OFFSET 0.000000 10.009018 0.000000
							}
						}
					}
				}
			}
			JOINT LBackpack_Strap
			{
				OFFSET 15.223200 -7.719803 -6.610900
				CHANNELS 3 Xrotation Yrotation Zrotation
				End Site
				{
					OFFSET 0.000000 16.040596 0.000000
				}
			}
			JOINT RBackpack_Strap
			{
				OFFSET -15.223000 -7.719803 -6.610900
				CHANNELS 3 Xrotation Yrotation Zrotation
				End Site
				{
					OFFSET 0.000000 16.040596 0.000000
				}
			}
		}
	}
	JOINT BoyFacialAnim_Joint
	{
		OFFSET 1.000000 -82.208099 -1.550900
		CHANNELS 3 Xrotation Yrotation Zrotation
		End Site
		{
			OFFSET 0.000000 30.012791 0.000000
		}
	}
}
MOTION
Frames: 5
Frame Time: 0.016667
-3.673704 75.398125 -4.155353 -3.154519 -6.280555 5.173421 0.000000 -0.000000 0.000000 -63.138760 5.442302 6.829854 55.878952 -1.038344 -5.087142 -1.536621 0.052698 -0.596406 0.000001 0.000000 0.000000 0.000001 0.000000 0.000000 0.000000 -0.000000 0.000000 -23.056355 -6.872988 -6.764290 53.518562 7.296292 3.455873 -27.039577 3.137678 -8.702735 -0.000000 0.000000 -0.000000 -0.000000 0.000000 -0.000000 0.000003 -0.000000 0.000000 13.731896 0.115982 -4.199701 2.722913 0.133860 -0.943517 2.720025 0.135223 -0.952573 2.743904 0.369061 0.041968 21.918280 4.192715 -0.129340 -0.000002 0.000000 -0.000000 -0.000002 0.000000 -0.000000 -0.000002 0.000000 -0.000000 0.619251 -1.200855 -10.994813 17.248861 -24.148521 -54.371574 0.000002 -28.855370 -0.000002 24.205869 -0.057600 -1.453789 -13.734204 9.516289 2.120166 12.920942 20.445755 20.805444 0.000004 0.000001 0.000002 0.624781 4.843206 -25.352332 0.379487 2.075997 -20.715392 -0.000001 -0.000002 -0.000000 0.442361 4.431079 -20.811037 0.385152 2.090953 -20.871738 0.000003 -0.000001 -0.000000 0.553777 4.704306 -23.698185 0.384454 2.089148 -20.852947 -0.000002 -0.000000 -0.000002 0.677174 4.972446 -26.586885 0.385158 2.090960 -20.871725 0.000001 0.000001 -0.000003 -0.000001 -0.000000 0.000000 0.265365 6.336858 17.304038 14.561917 17.232548 47.386073 0.000006 42.148968 -0.000025 24.497995 9.178852 9.204411 -13.230997 -9.083819 -4.233062 14.743226 -13.848446 -17.282885 0.000001 0.000003 -0.000001 0.733527 -4.698523 31.512379 0.755284 -2.544517 33.060137 -0.000001 -0.000001 0.000003 0.728915 -4.705642 31.511344 0.755283 -2.544503 33.059919 -0.000001 -0.000000 -0.000002 0.816092 -4.842833 33.512023 0.711531 -2.476069 32.061294 -0.000000 -0.000001 0.000004 0.908004 -4.976921 35.513330 0.755268 -2.544512 33.059915 -0.000001 -0.000001 -0.000002 0.000002 0.000000 -0.000001 0.000000 0.000000 -0.000000 0.000000 0.000000 -0.000000 0.000000 0.000000 -0.000000 0.000000 0.000000 -0.000000 0.000000 0.000000 -0.000000 0.000000 -0.000000 0.000000 0.000000 0.000000 -0.000000 0.000000 0.000000 -0.000000 0.000000 -0.000000 0.000000 0.000000 0.000000 -0.000000 0.000000 0.000000 -0.000000 0.000000 -0.000000 0.000000 
-3.728188 75.220200 -4.273848 -3.040821 -6.242300 5.108300 0.000000 -0.000000 0.000000 -62.608642 5.010279 6.340661 51.295486 -1.160407 -4.809290 1.513792 0.044010 0.694149 0.000000 -0.000000 0.000000 0.000000 -0.000000 0.000000 0.000002 -0.000000 0.000000 -23.562097 -6.940567 -6.660939 54.110145 7.313488 3.445054 -27.222938 3.150072 -8.824067 0.000000 0.000000 -0.000000 0.000000 0.000000 -0.000000 0.000000 -0.000000 -0.000000 13.850950 0.216785 -3.980957 2.787337 0.158803 -0.935779 2.784213 0.161847 -0.946242 2.763235 0.364234 0.009163 21.835042 4.220364 -0.349115 -0.000000 0.000000 0.000000 -0.000000 0.000000 0.000000 -0.000000 0.000000 0.000000 0.629835 -1.288736 -11.002613 17.403966 -24.407259 -54.849199 -0.000005 -28.505427 0.000001 25.130394 -0.221147 -1.029086 -13.734145 9.516088 2.120200 12.920933 20.445881 20.805373 0.000002 0.000001 -0.000003 0.626806 4.847518 -25.401769 0.414669 2.166694 -21.665860 -0.000002 -0.000001 -0.000004 0.439033 4.422237 -20.716742 0.416231 2.170645 -21.707567 0.000001 -0.000001 -0.000000 0.551160 4.698275 -23.632081 0.415323 2.168382 -21.683634 0.000001 0.000001 -0.000002 0.675532 4.969144 -26.548979 0.416242 2.170657 -21.707560 0.000001 0.000001 -0.000000 -0.000001 0.000000 -0.000000 0.222707 6.699103 17.382114 14.920429 17.286548 46.635972 -0.000020 43.116040 0.000035 24.299866 9.494708 9.224546 -13.085045 -9.143580 -3.844992 14.660642 -13.964660 -17.694030 0.000004 0.000001 0.000001 0.754231 -4.732102 32.001499 0.777117 -2.577728 33.548882 -0.000001 -0.000002 0.000002 0.749953 -4.739714 32.000529 0.777111 -2.577694 33.548704 0.000001 -0.000002 -0.000000 0.838291 -4.876148 34.001358 0.732782 -2.509655 32.550011 -0.000000 -0.000002 0.000002 0.931365 -5.009451 36.002818 0.777117 -2.577714 33.548687 0.000002 0.000000 -0.000001 -0.000001 0.000001 -0.000001 0.000002 -0.000000 0.000000 0.000002 -0.000000 0.000000 0.000002 -0.000000 0.000000 0.000002 -0.000000 0.000000 0.000002 -0.000000 0.000000 0.000002 -0.000000 0.000000 0.000002 -0.000000 0.000000 0.000002 -0.000000 0.000000 0.000002 -0.000000 0.000000 0.000001 0.000000 -0.000000 0.000001 0.000000 -0.000000 0.000000 -0.000000 0.000000 
-3.780572 75.055435 -4.404005 -2.864714 -6.304791 4.981484 -0.000000 -0.000000 0.000001 -61.942904 4.552857 5.975272 46.742338 -1.877995 -4.435189 5.074854 0.089227 2.122457 0.000000 0.000000 0.000000 0.000000 0.000000 0.000000 0.000001 -0.000000 -0.000000 -24.111514 -7.042824 -6.494315 54.618803 7.437162 3.436128 -27.322258 3.167802 -9.000402 0.000000 0.000000 -0.000000 0.000000 0.000000 -0.000000 -0.000001 -0.000001 0.000000 13.966404 0.336561 -3.731028 2.847387 0.187925 -0.917955 2.844044 0.192474 -0.929923 2.777809 0.367202 -0.028368 21.720498 4.314692 -0.575999 -0.000002 -0.000000 0.000000 -0.000002 -0.000000 0.000000 -0.000002 -0.000000 0.000000 0.640729 -1.333960 -11.005096 17.374232 -24.472996 -55.481630 -0.000007 -28.210913 0.000025 25.772430 -0.259553 -0.556255 -13.734068 9.515836 2.120263 12.920886 20.446096 20.805265 0.000000 0.000002 -0.000002 0.627457 4.848899 -25.418655 0.447880 2.248438 -22.528214 -0.000000 0.000001 -0.000003 0.435060 4.411632 -20.603346 0.446261 2.244517 -22.486743 0.000002 -0.000001 0.000002 0.547666 4.690280 -23.544200 0.445574 2.242868 -22.469482 0.000001 -0.000001 -0.000002 0.672801 4.963656 -26.486664 0.446251 2.244529 -22.486735 0.000001 0.000001 -0.000000 -0.000000 0.000000 -0.000001 0.180823 7.065461 17.444800 15.301582 17.417510 45.815031 -0.000004 44.069514 0.000010 24.288088 9.779414 9.317245 -12.936539 -9.203465 -3.451732 14.577131 -14.082811 -18.110733 0.000001 0.000000 -0.000003 0.772984 -4.762077 32.439823 0.796959 -2.607350 33.987055 0.000000 0.000002 0.000004 0.769044 -4.770155 32.438979 0.796952 -2.607329 33.986973 -0.000002 -0.000001 -0.000000 0.858436 -4.905903 34.439931 0.752092 -2.539617 32.988270 0.000001 -0.000001 0.000000 0.952553 -5.038476 36.441511 0.796949 -2.607340 33.986973 -0.000001 -0.000005 -0.000001 0.000000 -0.000001 -0.000000 0.000000 0.000000 -0.000000 0.000000 0.000000 -0.000000 0.000000 0.000000 -0.000000 0.000000 0.000000 -0.000000 0.000000 0.000000 -0.000000 0.000000 0.000000 -0.000000 0.000000 0.000000 -0.000000 0.000000 0.000000 -0.000000 0.000000 0.000000 -0.000000 0.000000 -0.000000 -0.000000 0.000000 -0.000000 -0.000000 -0.000000 -0.000000 0.000001 
-3.839557 74.931961 -4.560058 -2.603140 -6.407898 4.855140 0.000000 -0.000000 -0.000000 -61.404978 4.059231 5.871932 43.289947 -1.876820 -4.042576 7.524137 0.096657 2.235790 0.000000 0.000000 -0.000000 0.000000 0.000000 -0.000000 -0.000002 0.000000 -0.000000 -24.708928 -7.157558 -6.304677 54.977668 7.602164 3.429948 -27.301595 3.179639 -9.202415 0.000000 0.000000 0.000000 0.000000 0.000000 0.000000 -0.000000 -0.000000 -0.000001 14.084455 0.455353 -3.521004 2.901650 0.218671 -0.897720 2.898106 0.224245 -0.911136 2.785685 0.373451 -0.062493 21.560416 4.426316 -0.753391 0.000002 0.000000 0.000000 0.000002 0.000000 0.000000 0.000002 0.000000 0.000000 0.651117 -1.376264 -11.000298 17.231058 -24.456454 -56.127612 -0.000004 -27.965516 -0.000008 26.138096 -0.195725 -0.169281 -13.733970 9.515499 2.120330 12.920874 20.446328 20.805115 0.000002 0.000001 -0.000001 0.626473 4.846818 -25.397582 0.478098 2.319901 -23.286456 -0.000001 -0.000000 -0.000002 0.430234 4.398734 -20.466158 0.475163 2.313101 -23.214100 0.000004 0.000001 0.000002 0.543127 4.679804 -23.429758 0.474907 2.312482 -23.207603 0.000000 0.000000 -0.000000 0.668761 4.955518 -26.394960 0.475160 2.313109 -23.214066 -0.000000 0.000000 -0.000000 0.000002 0.000000 -0.000001 0.141481 7.412044 17.493919 15.609460 17.553246 45.040289 0.000016 44.952661 -0.000024 24.556110 10.030625 9.405979 -12.785925 -9.263296 -3.054562 14.492984 -14.202472 -18.531604 -0.000002 0.000003 -0.000001 0.789440 -4.787897 32.818977 0.814278 -2.632840 34.366336 -0.000004 -0.000004 0.000001 0.785830 -4.796416 32.818332 0.814274 -2.632838 34.366343 -0.000001 -0.000001 -0.000002 0.876133 -4.931588 34.819379 0.768998 -2.565434 33.367598 -0.000000 -0.000002 -0.000002 0.971144 -5.063513 36.821044 0.814291 -2.632860 34.366339 0.000000 -0.000001 -0.000003 0.000004 -0.000001 0.000001 0.000002 0.000000 -0.000000 0.000002 0.000000 -0.000000 0.000002 0.000000 -0.000000 0.000002 0.000000 -0.000000 0.000002 0.000000 -0.000000 0.000002 0.000000 -0.000000 0.000002 0.000000 -0.000000 0.000002 0.000000 -0.000000 0.000002 0.000000 -0.000000 -0.000000 -0.000000 -0.000000 -0.000000 -0.000000 -0.000000 0.000000 -0.000000 -0.000000 
-3.911883 74.885338 -4.758856 -2.228542 -6.478587 4.791045 -0.000000 0.000000 0.000000 -61.014292 3.663693 5.856368 40.774607 -1.667806 -3.717263 8.732506 0.052244 1.780712 -0.000001 -0.000000 0.000000 -0.000001 -0.000000 0.000000 -0.000000 0.000000 -0.000000 -25.353481 -7.262170 -6.132105 55.094717 7.731860 3.425854 -27.112745 3.172447 -9.391291 0.000000 0.000000 0.000000 0.000000 0.000000 0.000000 0.000002 -0.000000 0.000002 14.205922 0.540466 -3.409684 2.948590 0.244173 -0.882541 2.944863 0.250127 -0.897077 2.784119 0.379459 -0.086376 21.333148 4.511398 -0.839697 0.000000 -0.000000 -0.000000 0.000000 -0.000000 -0.000000 0.000000 -0.000000 -0.000000 0.660196 -1.456142 -10.992149 17.052645 -24.459756 -56.653301 0.000005 -27.764833 -0.000001 26.287798 -0.072821 0.052197 -13.733875 9.515049 2.120383 12.920854 20.446596 20.804958 0.000000 -0.000000 0.000000 0.623616 4.840745 -25.332984 0.505102 2.381608 -23.944697 -0.000001 -0.000000 -0.000004 0.424476 4.383152 -20.300321 0.502569 2.375914 -23.883840 -0.000001 -0.000001 0.000002 0.537358 4.666394 -23.283731 0.502666 2.376132 -23.886269 0.000001 0.000001 -0.000002 0.663190 4.944258 -26.268759 0.502576 2.375901 -23.883840 0.000000 0.000000 0.000001 -0.000000 0.000000 0.000001 0.106667 7.709675 17.533400 15.764220 17.647319 44.412957 0.000013 45.711813 0.000004 25.094062 10.265067 9.408127 -12.633715 -9.322856 -2.654791 14.408540 -14.323258 -18.955336 0.000004 0.000001 0.000001 0.803057 -4.809014 33.130440 0.828662 -2.653724 34.677960 -0.000001 0.000000 0.000004 0.799780 -4.817992 33.129956 0.828670 -2.653741 34.678117 -0.000001 -0.000001 0.000003 0.890840 -4.952662 35.131075 0.783003 -2.586558 33.679362 -0.000000 0.000000 0.000000 0.986585 -5.084069 37.132829 0.828670 -2.653721 34.678114 -0.000000 -0.000003 -0.000004 -0.000000 -0.000002 0.000001 0.000000 -0.000000 0.000000 0.000000 -0.000000 0.000000 0.000000 -0.000000 0.000000 0.000000 -0.000000 0.000000 0.000000 -0.000000 0.000000 0.000000 0.000000 0.000000 0.000000 -0.000000 0.000000 0.000000 -0.000000 0.000000 0.000000 0.000000 0.000000 -0.000001 -0.000000 0.000000 -0.000001 -0.000000 0.000000 -0.000000 0.000000 0.000000 
